<svg xmlns="http://www.w3.org/2000/svg" viewBox="0 0 1800 260" role="img" aria-label="Working with Buckland, Tully and Smiths Property Group, Costcap, Humo and Sale Group"><style>.g{fill:#cda54b}.ser{font-family:Georgia,'Times New Roman',serif}.sans{font-family:Arial,Helvetica,sans-serif}</style><g class="g"><text x="900" y="35" text-anchor="middle" class="sans" font-size="17" letter-spacing="8">WORKING WITH</text><rect x="565" y="28" width="230" height="1"/><rect x="1005" y="28" width="230" height="1"/><g transform="translate(35 100)"><text x="0" y="70" class="ser" font-size="68">Buckland</text><path d="M285 18h56l-26 30h-48zm-18 38h50l-25 31h-48zm51 0h45l-25 31h-46z"/></g><g transform="translate(405 78)"><path fill="none" stroke="#cda54b" stroke-width="10" d="M18 74V36l36-31 36 31v38M0 74h110M30 74V50l25-22 25 22v24"/><text x="55" y="112" text-anchor="middle" class="ser" font-size="30">TULLY &amp; SMITHS</text><text x="55" y="137" text-anchor="middle" class="sans" font-size="13" letter-spacing="4">PROPERTY GROUP</text></g><g transform="translate(730 100)"><text x="0" y="70" class="ser" font-size="58" letter-spacing="8">COSTCAP</text></g><g transform="translate(1120 100)"><text x="0" y="70" class="sans" font-size="66" letter-spacing="9">HUMO</text></g><g transform="translate(1475 82)"><text x="0" y="78" class="ser" font-size="82">Sale</text><text x="75" y="112" class="ser" font-size="39">Group</text></g></g></svg>